<?xml version="1.0" standalone="no"?>
<!DOCTYPE svg PUBLIC "-//W3C//DTD SVG 20010904//EN"
 "http://www.w3.org/TR/2001/REC-SVG-20010904/DTD/svg10.dtd">
<svg version="1.0" xmlns="http://www.w3.org/2000/svg"
 width="2000.000000pt" height="1333.000000pt" viewBox="0 0 2000.000000 1333.000000"
 preserveAspectRatio="xMidYMid meet">

<g transform="translate(0.000000,1333.000000) scale(0.100000,-0.100000)"
fill="#000000" stroke="none">
<path d="M14376 11699 c-82 -5 -151 -11 -154 -13 -10 -10 65 -72 176 -147 89
-59 107 -75 92 -81 -28 -10 -38 -35 -51 -129 -15 -111 3 -228 39 -244 29 -13
28 -19 -5 -34 -48 -22 -251 -162 -257 -177 -3 -8 0 -17 7 -19 24 -8 307 -25
411 -25 134 0 139 4 176 147 l11 43 47 -8 c84 -13 442 -8 508 7 34 7 67 17 74
21 7 4 19 56 28 120 14 98 14 123 1 213 l-14 101 -70 20 c-60 17 -106 20 -320
22 l-249 2 -16 65 c-9 35 -23 75 -32 89 -26 39 -93 44 -402 27z m372 -18 c15
-9 66 -141 58 -149 -3 -3 -8 4 -12 14 -3 10 -16 44 -28 74 l-22 55 -185 -1
c-122 -1 -160 1 -114 6 104 10 288 11 303 1z m495 -255 c117 -50 144 -210 51
-298 -81 -75 -194 -57 -251 40 -51 86 -16 208 72 252 47 23 83 25 128 6z
m-340 -57 c56 -25 76 -125 36 -180 -29 -41 -90 -56 -132 -32 -71 41 -84 137
-27 195 31 30 79 37 123 17z m-123 -435 c-35 -100 -30 -98 -231 -85 -95 7
-176 15 -179 18 -5 6 192 -3 291 -13 68 -7 79 2 110 87 12 32 24 58 26 55 2
-2 -5 -30 -17 -62z"/>
<path d="M15145 11396 c-53 -24 -78 -60 -83 -120 -5 -67 20 -115 74 -141 85
-40 184 30 184 132 0 93 -97 165 -175 129z m141 -160 c-6 -23 -42 -66 -56 -66
-4 0 5 13 21 29 21 21 29 40 30 68 1 25 3 30 6 14 3 -12 2 -33 -1 -45z"/>
<path d="M14796 11329 c-49 -58 -22 -141 50 -155 24 -4 37 0 62 21 27 23 32
34 32 71 0 89 -90 128 -144 63z m117 -97 c-11 -14 -25 -28 -32 -30 -7 -2 -1 7
13 22 14 14 27 35 27 48 1 19 2 20 6 4 3 -10 -4 -30 -14 -44z"/>
<path d="M2325 11143 c-112 -12 -212 -70 -272 -156 -45 -67 -58 -116 -58 -227
0 -87 3 -101 32 -161 39 -79 102 -141 181 -177 48 -22 75 -27 174 -30 l117 -4
3 -517 c4 -483 5 -523 26 -628 35 -177 87 -337 157 -478 108 -220 181 -317
446 -597 243 -255 504 -533 749 -793 124 -132 288 -306 366 -387 173 -182 197
-223 202 -350 5 -106 -15 -179 -67 -248 -20 -26 -355 -387 -744 -803 -390
-415 -735 -790 -768 -833 -202 -264 -321 -569 -359 -926 -5 -55 -10 -334 -10
-636 l0 -539 -115 -5 c-108 -5 -121 -8 -190 -42 -46 -23 -87 -52 -109 -77
-156 -183 -113 -466 90 -585 94 -55 50 -54 1516 -54 l1358 0 14 -34 c20 -47
91 -123 141 -149 l40 -22 1262 -3 1263 -2 28 62 c16 35 45 84 65 111 21 26 37
49 37 50 0 2 -348 4 -772 4 -770 0 -1105 9 -1447 39 -189 16 -221 26 -247 76
-18 35 -18 -26 1 1443 5 382 11 865 36 3020 17 1534 25 1989 33 2008 11 23 -9
22 -67 -3 -119 -53 -218 -159 -268 -288 -20 -51 -22 -83 -29 -332 -5 -151 -11
-475 -14 -720 -10 -668 -24 -1519 -41 -2345 -16 -770 -35 -1922 -35 -2070 l0
-85 -1122 2 -1123 3 -27 104 c-72 279 -77 640 -13 941 90 425 323 828 681
1182 149 146 226 212 414 352 435 324 748 792 842 1257 22 110 22 113 5 212
-33 194 -137 456 -257 647 -147 235 -372 477 -602 648 -621 461 -979 978
-1094 1582 -36 185 -44 458 -20 649 10 73 20 139 23 147 4 12 361 14 2398 14
2271 0 2394 -1 2399 -17 13 -46 27 -151 36 -282 28 -391 -65 -800 -263 -1160
l-52 -93 -152 5 c-145 6 -153 5 -185 -16 -50 -34 -68 -79 -68 -170 l0 -78
-248 7 c-266 8 -280 6 -326 -45 -17 -19 -31 -21 -125 -22 -105 -1 -106 -2 -41
-10 36 -5 79 -11 97 -14 l32 -6 -6 -99 -6 -99 34 -34 35 -35 204 -6 c113 -3
466 -11 785 -16 319 -5 851 -15 1182 -21 l601 -12 44 26 c24 14 52 41 63 60
l18 35 146 6 c80 3 220 9 311 12 l166 6 32 -27 c18 -15 37 -36 43 -47 11 -20
21 -274 59 -1398 12 -349 23 -650 26 -667 l5 -33 62 0 61 0 -62 -62 -62 -62 5
-191 c8 -261 5 -248 75 -299 59 -44 162 -86 208 -86 l24 0 -6 98 c-3 53 -8
174 -11 267 -19 579 -46 1433 -55 1750 -15 505 -21 569 -59 650 -58 125 -177
219 -311 243 -30 6 -199 13 -375 16 -293 6 -321 8 -340 25 -45 41 -81 51 -187
51 -57 0 -154 3 -215 7 l-113 6 0 49 c0 58 -18 104 -53 137 -30 27 -81 33
-374 46 -90 4 -163 11 -163 15 0 4 11 32 24 61 35 81 49 154 44 228 -6 83 -32
135 -99 195 -51 46 -161 106 -194 106 -16 0 -17 7 -11 61 3 34 6 259 6 500 l0
439 88 0 c110 0 189 20 257 66 62 41 96 82 133 162 36 79 37 208 2 297 -32 82
-122 173 -205 206 l-60 24 -2840 1 c-1562 0 -2853 -1 -2870 -3z m5513 -1799
c12 -4 22 -14 22 -24 0 -15 -10 -17 -82 -16 -90 0 -124 -11 -167 -58 -20 -21
-26 -40 -30 -99 -5 -54 -10 -72 -21 -72 -22 0 -35 80 -20 129 22 73 63 113
140 137 31 9 127 11 158 3z m3 -167 c48 -32 67 -89 46 -139 -8 -20 -28 -45
-43 -55 -28 -18 -99 -23 -114 -7 -4 5 3 45 15 89 13 44 26 92 29 108 8 33 23
34 67 4z m-253 -185 c3 -46 1 -52 -16 -52 -16 0 -20 9 -25 47 -6 55 -2 65 21
61 13 -2 18 -16 20 -56z m-264 -212 c24 -23 -12 -30 -150 -30 -141 0 -146 -1
-169 -25 -21 -20 -25 -34 -25 -85 0 -57 -1 -60 -25 -60 -23 0 -25 3 -25 50 0
84 34 141 96 160 33 10 285 1 298 -10z m124 -12 c-3 -8 -21 -13 -43 -13 -22 0
-40 5 -42 13 -3 8 9 12 42 12 33 0 45 -4 43 -12z m-2218 -5533 c0 -43 -4 -75
-10 -75 -6 0 -10 32 -10 75 0 43 4 75 10 75 6 0 10 -32 10 -75z m-9 -505 c0
-107 -4 -296 -7 -420 -6 -192 -4 -233 10 -282 23 -81 81 -149 158 -187 l63
-31 300 -10 c164 -6 301 -13 304 -15 15 -16 -40 -17 -312 -8 -274 9 -306 12
-350 31 -70 32 -140 102 -172 174 l-28 62 6 411 c4 225 7 425 7 443 0 21 4 32
11 30 8 -3 11 -62 10 -198z"/>
<path d="M12335 9856 c-179 -61 -238 -245 -130 -408 32 -48 33 -97 2 -126 -23
-22 -29 -22 -340 -22 l-317 0 0 -334 c0 -352 -3 -383 -45 -410 -43 -28 -84
-20 -164 34 -41 27 -90 55 -109 61 -111 37 -296 -60 -359 -189 -23 -47 -27
-69 -27 -132 0 -90 13 -137 56 -210 68 -112 161 -142 313 -101 43 12 109 35
147 51 90 39 112 38 154 -4 l34 -34 0 -356 0 -356 320 0 c356 0 354 0 306 63
-105 138 -91 304 37 435 146 149 366 187 464 81 12 -13 34 -51 49 -84 53 -115
42 -269 -27 -408 -17 -32 -28 -65 -25 -73 4 -12 59 -14 316 -14 l310 0 0 328
c0 361 1 365 61 395 35 17 38 17 110 -7 109 -36 231 -57 287 -49 101 13 215
95 258 187 17 34 17 34 73 29 56 -5 95 -24 115 -56 14 -22 -37 -174 -67 -200
-18 -16 -22 -16 -41 -2 -90 66 -97 69 -112 54 -21 -22 -51 -166 -36 -181 13
-13 88 -27 155 -27 l48 -1 45 98 c69 149 67 147 95 146 13 -1 32 -4 41 -8 12
-5 22 0 34 19 17 26 17 29 1 57 -21 36 -21 52 -2 68 23 19 18 49 -15 82 -26
26 -36 30 -65 25 -48 -8 -92 16 -100 54 -9 41 -46 63 -93 56 -38 -5 -39 -4
-51 37 -25 86 -128 183 -225 211 -108 32 -212 14 -355 -61 -46 -24 -93 -44
-105 -44 -39 0 -84 36 -91 74 -4 19 -2 158 4 310 6 152 11 301 11 331 l0 55
-357 0 -358 1 38 31 c86 70 128 163 128 280 0 96 -27 164 -82 212 -73 62 -190
74 -314 32z"/>
<path d="M16692 7994 c-55 -27 -101 -78 -129 -141 -13 -28 -17 -64 -17 -138 1
-86 4 -109 28 -165 43 -99 44 -124 8 -160 l-30 -30 -271 0 -271 0 0 -284 0
-284 -31 -26 c-39 -33 -74 -33 -122 0 -115 78 -218 95 -313 50 -56 -26 -118
-91 -135 -144 -18 -54 -6 -196 21 -260 29 -66 65 -97 134 -113 68 -15 180 0
270 36 80 32 120 32 151 0 l25 -24 0 -316 0 -315 135 0 c74 0 135 2 135 4 0 3
-10 21 -21 41 -18 30 -21 47 -17 105 8 106 31 123 94 68 24 -21 52 -64 80
-125 48 -104 64 -114 111 -67 29 29 28 42 -11 152 -71 200 -4 316 191 329 258
17 393 -106 353 -321 -24 -133 -24 -135 1 -162 l22 -24 259 0 258 0 0 288 c0
158 -4 292 -8 298 -20 31 -47 32 -107 7 -77 -33 -153 -43 -235 -32 -136 19
-218 68 -262 157 -19 40 -23 62 -23 147 0 87 3 107 27 157 52 112 170 198 273
198 52 0 128 -30 213 -84 47 -30 83 -33 106 -10 14 13 16 53 16 285 l0 269
-280 0 -280 0 -30 28 c-36 32 -37 38 -20 162 21 158 -6 328 -65 406 -51 67
-144 82 -233 38z"/>
<path d="M15062 6605 c-4 -9 -53 -34 -108 -56 -92 -37 -369 -128 -404 -134
-18 -2 -23 -25 -49 -255 -29 -246 -70 -836 -97 -1362 l-6 -136 43 -7 c88 -13
90 -11 143 206 48 193 229 1018 242 1097 4 23 10 42 14 42 14 0 70 -677 95
-1160 8 -147 12 -191 20 -199 3 -3 37 -7 75 -9 l68 -4 6 28 c3 16 10 166 16
334 5 168 12 357 15 420 10 226 20 678 20 885 l0 211 -35 57 c-36 61 -44 66
-58 42z"/>
<path d="M12345 6442 c-171 -60 -291 -195 -303 -339 -6 -80 11 -139 59 -209
53 -75 57 -97 25 -128 l-25 -26 -371 0 -370 0 0 -195 c0 -149 3 -195 13 -195
6 0 32 14 57 30 88 59 192 74 305 45 206 -54 353 -240 343 -435 -2 -57 1 -73
30 -130 87 -175 59 -346 -80 -484 -138 -137 -274 -150 -503 -49 -91 40 -117
43 -145 18 -19 -17 -20 -33 -20 -417 l0 -398 351 0 351 0 29 -29 c16 -16 29
-37 29 -46 0 -9 -17 -65 -37 -123 -30 -89 -37 -121 -37 -192 -1 -100 18 -142
82 -178 91 -51 285 -70 395 -38 73 21 147 72 174 121 42 75 26 192 -44 326
-39 74 -38 106 4 139 25 19 42 20 364 20 l338 0 3 383 c2 242 -1 391 -7 407
-18 43 -48 51 -124 29 -147 -44 -240 -62 -311 -63 -66 -1 -83 3 -142 32 -156
76 -247 256 -209 409 39 152 161 309 274 351 107 40 230 25 341 -43 92 -57 95
-58 126 -45 16 7 33 22 37 34 4 11 8 177 8 368 l0 348 -357 0 c-345 0 -359 1
-378 20 -28 28 -25 56 15 143 81 176 85 335 11 461 -42 71 -77 91 -171 94 -57
2 -94 -3 -130 -16z"/>
<path d="M9270 5739 l0 -361 -34 -34 c-47 -47 -79 -45 -194 14 -92 46 -96 47
-186 47 -80 0 -98 -3 -151 -29 -73 -36 -149 -111 -177 -173 -42 -96 -33 -227
25 -345 l32 -66 -35 -6 c-84 -14 -140 -79 -171 -198 -19 -74 -23 -80 -78 -110
-17 -9 -35 -27 -40 -40 -5 -13 -14 -37 -21 -55 -13 -33 -19 -37 -140 -74 -98
-30 -170 -96 -194 -178 -37 -126 0 -211 104 -242 60 -18 74 -40 81 -125 5 -64
10 -79 34 -104 15 -16 43 -36 60 -45 32 -15 135 -21 135 -8 0 3 -22 30 -50 59
-80 85 -69 117 80 213 l106 70 42 187 41 188 -37 44 c-57 67 -58 70 -46 89 15
25 30 27 51 6 52 -50 52 -50 50 30 -2 67 1 78 22 101 32 34 85 44 111 21 17
-16 19 -16 29 4 6 11 11 30 11 43 0 22 2 23 98 24 106 1 145 9 269 56 93 35
120 33 164 -12 l29 -28 0 -406 0 -406 48 1 c47 0 47 0 101 75 36 49 61 74 74
74 21 0 21 -6 1 -117 l-6 -33 229 0 c165 0 232 3 241 12 19 19 14 55 -13 96
-28 43 -55 139 -55 197 1 112 50 243 121 320 56 60 116 80 244 80 89 0 106 -3
156 -28 63 -30 126 -93 158 -156 67 -131 67 -337 0 -447 -23 -38 -24 -58 -3
-78 13 -14 58 -16 335 -16 l319 0 0 401 0 401 34 34 c44 44 75 44 176 0 111
-49 175 -66 249 -66 146 0 279 113 326 275 50 172 -47 360 -232 448 -62 29
-77 32 -163 32 -98 0 -133 -11 -210 -66 -46 -32 -102 -28 -141 10 l-29 29 0
356 0 356 -335 0 c-280 0 -337 -2 -341 -14 -3 -8 10 -37 29 -65 63 -91 86
-196 68 -312 -29 -184 -147 -292 -320 -291 -190 0 -370 116 -430 277 -43 114
-21 261 53 358 17 23 35 48 40 55 6 9 -71 12 -368 12 l-376 0 0 -361z"/>
<path d="M17433 5379 c-35 -10 -83 -61 -83 -88 0 -9 18 -47 39 -83 64 -104 67
-155 11 -178 -36 -15 -60 -46 -60 -76 0 -14 -23 -45 -58 -81 -72 -72 -91 -126
-72 -200 6 -27 22 -62 36 -80 29 -39 30 -48 2 -109 -30 -68 -30 -164 -1 -220
61 -116 255 -205 416 -192 106 9 177 58 240 166 30 51 37 58 73 62 21 3 45 9
52 13 20 13 14 61 -13 97 -32 44 -32 53 8 89 30 29 32 35 31 93 -2 126 -76
228 -192 265 -71 22 -79 46 -33 99 24 26 31 44 31 75 0 67 -46 130 -109 150
-54 18 -61 27 -61 84 0 63 -26 98 -86 114 -46 13 -126 13 -171 0z"/>
<path d="M14325 4556 c-125 -67 -226 -137 -223 -155 3 -14 29 -16 198 -17 107
-1 203 3 213 8 20 10 23 79 6 138 -11 36 -14 38 -44 33 -24 -4 -37 0 -51 15
l-20 21 -79 -43z"/>
<path d="M14928 4543 c-42 -48 -74 -100 -83 -136 l-7 -28 138 3 139 3 -2 48
c-2 58 -22 147 -33 147 -4 0 -10 -9 -13 -20 -4 -15 -14 -20 -36 -20 -20 0 -35
7 -43 20 -17 27 -20 26 -60 -17z"/>
<path d="M10139 4542 c-79 -29 -79 -29 -79 -167 0 -67 3 -149 6 -182 l7 -60
39 43 c43 46 98 70 187 81 l53 6 -6 51 c-3 28 -6 95 -6 149 l0 97 -77 -1 c-46
0 -97 -7 -124 -17z"/>
<path d="M10216 4200 c-63 -25 -100 -60 -136 -132 -64 -129 -66 -265 -6 -380
43 -82 46 -119 11 -153 l-24 -25 -346 0 -346 0 3 -369 c3 -347 4 -370 22 -390
26 -29 62 -26 137 9 77 35 169 60 224 60 53 0 138 -25 185 -55 48 -30 115
-107 149 -170 23 -44 26 -61 25 -140 -1 -192 -99 -381 -229 -441 -85 -40 -258
-24 -374 35 -53 28 -86 26 -116 -4 l-25 -24 0 -316 0 -315 335 0 336 0 24 26
c33 35 31 58 -7 140 -80 168 -19 305 177 399 85 41 149 56 236 57 234 2 330
-182 224 -432 -35 -84 -41 -116 -24 -146 21 -40 63 -45 364 -42 l280 3 3 328
2 328 -24 24 c-31 31 -45 31 -135 0 -210 -71 -381 -49 -505 65 -135 124 -165
365 -69 542 53 98 162 166 278 176 76 6 130 -16 270 -108 50 -33 100 -60 112
-60 11 0 31 9 44 19 l24 19 3 381 3 380 -332 3 -331 3 -24 28 c-28 32 -31 73
-8 105 22 32 54 130 54 169 0 33 -1 33 -46 33 -37 0 -51 5 -75 29 -36 37 -36
56 0 134 49 105 49 119 0 160 -23 20 -62 43 -87 51 -65 22 -194 20 -256 -4z"/>
<path d="M17385 3908 c-27 -5 -113 -10 -190 -11 l-140 -2 0 -40 c-1 -22 -6
-75 -13 -118 -15 -96 -16 -368 -2 -508 9 -89 45 -321 66 -428 4 -17 16 -37 28
-44 35 -20 267 -16 351 6 78 21 195 75 239 112 l29 23 -22 189 c-12 103 -33
267 -47 363 -29 203 -38 224 -145 332 -48 49 -70 80 -75 104 -3 19 -11 33 -18
33 -6 -1 -33 -6 -61 -11z"/>
<path d="M11358 3105 l-3 -385 -33 -32 c-51 -52 -96 -47 -196 21 -43 29 -107
67 -143 83 -56 27 -72 30 -124 25 -182 -16 -300 -179 -287 -396 10 -177 122
-308 290 -342 70 -14 187 0 293 36 87 29 106 30 144 10 58 -29 61 -50 61 -409
l0 -326 298 0 c322 0 336 2 361 54 11 25 10 37 -12 104 -47 144 -44 270 8 373
48 95 153 148 264 134 174 -22 402 -161 466 -285 31 -59 31 -137 1 -211 -38
-95 -34 -129 15 -154 23 -12 83 -15 319 -15 l290 0 2 308 c2 169 3 331 3 359
-1 85 -57 123 -125 83 -146 -86 -275 -127 -359 -115 -155 22 -292 180 -321
372 -39 251 167 466 430 451 69 -4 89 -10 170 -51 50 -26 100 -47 110 -47 10
0 32 11 47 24 l28 24 3 346 3 346 -335 0 c-291 0 -337 -2 -350 -16 -21 -21
-20 -30 9 -79 68 -117 93 -270 56 -350 -71 -157 -331 -223 -569 -144 -74 25
-115 56 -145 113 -18 34 -22 56 -21 131 1 74 7 106 33 180 43 119 46 132 31
150 -11 13 -64 15 -361 15 l-348 0 -3 -385z"/>
<path d="M8379 3143 c-85 -48 -162 -131 -179 -192 -5 -20 -23 -128 -40 -241
-55 -359 -108 -578 -169 -698 -12 -24 -21 -45 -19 -47 2 -2 48 -13 103 -23 55
-11 95 -21 88 -21 -10 -1 -133 -219 -133 -235 0 -3 73 -6 163 -6 l162 0 2 50
c1 34 11 69 31 108 l30 57 82 8 c46 4 85 5 87 3 3 -2 1 -54 -4 -115 l-8 -111
382 0 383 0 0 129 c0 72 -3 132 -7 134 -5 3 -169 0 -365 -6 -197 -6 -360 -9
-362 -6 -2 2 27 168 65 369 131 697 123 645 111 739 -6 46 -13 86 -16 88 -2 3
-30 -1 -62 -7 -70 -15 -150 -6 -226 24 l-57 23 -42 -24z"/>
<path d="M10305 1945 c-133 -47 -230 -137 -242 -225 l-6 -43 65 5 c35 3 85 14
110 26 91 40 166 132 183 225 7 34 5 37 -16 37 -13 0 -55 -12 -94 -25z"/>
<path d="M18154 1734 c-12 -28 -12 -46 -3 -100 12 -68 8 -139 -9 -156 -5 -5
-43 -14 -83 -19 -41 -5 -80 -16 -88 -24 -14 -13 -4 -15 86 -15 69 0 104 4 111
13 6 7 23 76 38 154 29 151 27 165 -17 176 -16 4 -24 -2 -35 -29z"/>
<path d="M17439 1509 c-31 -26 -50 -32 -120 -41 -82 -9 -169 -45 -169 -68 0
-12 75 -12 253 -3 l127 6 0 30 c0 28 -37 108 -49 106 -3 0 -22 -14 -42 -30z"/>
<path d="M8372 905 c-25 -32 -26 -42 -10 -150 12 -86 28 -121 29 -65 0 44 20
102 36 107 7 3 44 -28 82 -67 l70 -71 58 3 c50 3 58 6 58 23 0 13 -8 21 -23
23 -42 6 -240 150 -261 189 l-18 35 -21 -27z"/>
<path d="M7660 797 c0 -42 -32 -67 -86 -67 -56 0 -84 14 -84 42 0 30 -15 12
-30 -35 -18 -57 -5 -67 91 -67 54 0 82 4 92 14 14 14 32 124 22 134 -3 3 -5
-7 -5 -21z"/>
</g>
</svg>
